<?xml version="1.0" encoding="utf-8"?>
<!-- Generator: Adobe Illustrator 17.1.0, SVG Export Plug-In . SVG Version: 6.00 Build 0)  -->
<!DOCTYPE svg PUBLIC "-//W3C//DTD SVG 1.1//EN" "http://www.w3.org/Graphics/SVG/1.1/DTD/svg11.dtd">
<svg version="1.1" id="Layer_1" xmlns="http://www.w3.org/2000/svg" xmlns:xlink="http://www.w3.org/1999/xlink" x="0px" y="0px"
	 viewBox="399 0 561 560" enable-background="new 399 0 561 560" xml:space="preserve">
<g id="Layer_2" display="none">
	<rect x="606.6" y="125.5" display="inline" width="142.6" height="51.2"/>
</g>
<g enable-background="new    ">
	<path fill="#FFFFFF" d="M487.1,617c0-6.2,4.6-10.5,10.4-10.5c3.6,0,6.1,1.7,7.6,4l-2.2,1.2c-1.2-1.7-3.3-3-5.6-3
		c-4.5,0-7.8,3.4-7.8,8.2c0,4.8,3.3,8.2,7.8,8.2c2.3,0,4.4-1.2,5.6-3l2.2,1.2c-1.7,2.3-4.2,4-7.7,4
		C491.7,627.5,487.1,623.2,487.1,617z"/>
	<path fill="#FFFFFF" d="M528.5,627.1l-5.1-8h-4v8h-2.5v-20.2h8.1c3.7,0,6.3,2.4,6.3,6.1c0,3.6-2.5,5.6-5.3,5.9l5.4,8.2H528.5z
		 M528.6,613c0-2.3-1.6-3.9-4-3.9h-5.3v7.7h5.3C527,616.8,528.6,615.2,528.6,613z"/>
	<path fill="#FFFFFF" d="M543.6,627.1v-20.2h13.2v2.2H546v6.5h10.5v2.2H546v7h10.8v2.2L543.6,627.1L543.6,627.1z"/>
	<path fill="#FFFFFF" d="M583.7,627.1l-1.8-4.5h-10.1l-1.8,4.5h-2.9l8.1-20.2h3.1l8.2,20.2H583.7z M576.8,609.5l-4.3,10.9h8.6
		L576.8,609.5z"/>
	<path fill="#FFFFFF" d="M600.5,627.1v-18h-6.4v-2.2h15.4v2.2H603v18H600.5z"/>
	<path fill="#FFFFFF" d="M621.2,627.1v-20.2h2.5v20.2H621.2z"/>
	<path fill="#FFFFFF" d="M642.8,627.1l-8.1-20.2h2.9l6.8,17.5l6.8-17.5h2.9l-8.2,20.2H642.8z"/>
	<path fill="#FFFFFF" d="M665.1,627.1v-20.2h13.2v2.2h-10.8v6.5h10.6v2.2h-10.5v7h10.8v2.2L665.1,627.1L665.1,627.1z"/>
	<path fill="#FFFFFF" d="M706.9,627.1v-20.2h6.9c6.3,0,10.4,4.4,10.4,10.1c0,5.8-4.1,10.1-10.4,10.1H706.9L706.9,627.1z M721.6,617
		c0-4.4-2.7-7.9-7.8-7.9h-4.4v15.7h4.4C718.8,624.9,721.6,621.3,721.6,617z"/>
	<path fill="#FFFFFF" d="M736.5,627.1v-20.2h13.2v2.2H739v6.5h10.5v2.2H739v7h10.8v2.2L736.5,627.1L736.5,627.1z"/>
	<path fill="#FFFFFF" d="M761,624.3l1.5-1.9c1.3,1.5,3.5,2.9,6.4,2.9c3.6,0,4.8-1.9,4.8-3.5c0-5.2-12-2.3-12-9.6c0-3.3,3-5.6,7-5.6
		c3.1,0,5.5,1,7.2,2.8l-1.5,1.9c-1.5-1.6-3.6-2.5-5.9-2.5c-2.5,0-4.2,1.3-4.2,3.2c0,4.5,12,1.9,12,9.5c0,3-2,5.9-7.4,5.9
		C765.2,627.5,762.6,626.1,761,624.3z"/>
	<path fill="#FFFFFF" d="M788.3,627.1v-20.2h2.5v20.2H788.3z"/>
	<path fill="#FFFFFF" d="M803.1,617c0-6.3,4.6-10.5,10.4-10.5c3.6,0,6.1,1.6,7.9,3.8l-2,1.3c-1.3-1.6-3.4-2.8-5.9-2.8
		c-4.5,0-7.8,3.4-7.8,8.2c0,4.8,3.3,8.2,7.8,8.2c2.5,0,4.5-1.2,5.4-2.2v-4.2h-7v-2.2h9.4v7.3c-1.9,2.1-4.6,3.5-7.9,3.5
		C807.8,627.5,803.1,623.3,803.1,617z"/>
	<path fill="#FFFFFF" d="M848.2,627.1L836.4,611v16.1h-2.5v-20.2h2.6l11.7,15.8v-15.8h2.5v20.2H848.2z"/>
	<path fill="#FFFFFF" d="M470.9,663.5c-0.6-0.5-1.4-1.3-2.2-2.2c-1.5,1.5-3.3,2.5-5.8,2.5c-3.5,0-6.3-1.9-6.3-5.6
		c0-3.1,2.2-4.8,4.5-6c-0.9-1.6-1.6-3.1-1.6-4.5c0-2.7,2.2-4.7,5.1-4.7c2.7,0,4.6,1.4,4.6,3.9c0,3-2.6,4.4-5.1,5.7
		c0.8,1.1,1.6,2.2,2.3,2.9c0.8,1,1.6,1.9,2.4,2.7c1.1-1.6,1.9-3.5,2.2-4.6l2,0.8c-0.7,1.6-1.6,3.5-2.7,5.2c1.2,1.3,2.5,2.5,3.9,3.8
		H471L470.9,663.5L470.9,663.5z M467.3,660c-1.2-1.2-2.2-2.4-2.8-3c-0.8-1-1.7-2.1-2.5-3.2c-1.6,1-3,2.3-3,4.4
		c0,2.5,1.9,3.9,4.1,3.9C464.8,662,466.2,661.1,467.3,660z M463.1,651.2c2.2-1,4-2.2,4-4.2c0-1.5-1-2.3-2.4-2.3
		c-1.6,0-2.8,1.2-2.8,3C461.8,648.8,462.3,650,463.1,651.2z"/>
	<path fill="#FFFFFF" d="M517.3,663.5l-4.5-16.3l-4.5,16.3h-2.7l-5.8-20.2h2.8l4.5,16.9l4.6-16.9h2.1l4.6,16.9l4.5-16.9h2.8
		l-5.8,20.2H517.3z"/>
	<path fill="#FFFFFF" d="M537,663.5v-20.2h13.2v2.2h-10.8v6.5H550v2.2h-10.5v7h10.8v2.2L537,663.5L537,663.5z"/>
	<path fill="#FFFFFF" d="M562.6,663.5v-20.2h9c3.5,0,5.6,2.2,5.6,5.1c0,2.5-1.7,4.2-3.6,4.6c2.2,0.3,3.9,2.5,3.9,5
		c0,3.3-2.2,5.4-5.9,5.4L562.6,663.5L562.6,663.5z M574.7,648.8c0-1.9-1.2-3.3-3.5-3.3h-6.1v6.5h6.1
		C573.5,652,574.7,650.6,574.7,648.8z M575.1,657.8c0-1.9-1.3-3.5-3.8-3.5h-6.2v7h6.2C573.6,661.3,575.1,659.9,575.1,657.8z"/>
	<path fill="#FFFFFF" d="M606.3,663.5v-20.2h6.9c6.3,0,10.4,4.4,10.4,10.1c0,5.8-4.1,10.1-10.4,10.1H606.3L606.3,663.5z M621,653.4
		c0-4.4-2.7-7.9-7.8-7.9h-4.4v15.7h4.4C618.1,661.3,621,657.7,621,653.4z"/>
	<path fill="#FFFFFF" d="M635.9,663.5v-20.2h13.2v2.2h-10.8v6.5h10.5v2.2h-10.5v7h10.8v2.2L635.9,663.5L635.9,663.5z"/>
	<path fill="#FFFFFF" d="M667.5,663.5l-8.1-20.2h2.9l6.8,17.5l6.8-17.5h2.9l-8.2,20.2H667.5z"/>
	<path fill="#FFFFFF" d="M689.8,663.5v-20.2H703v2.2h-10.8v6.5h10.5v2.2h-10.5v7H703v2.2L689.8,663.5L689.8,663.5z"/>
	<path fill="#FFFFFF" d="M715.4,663.5v-20.2h2.5v18h9.4v2.2H715.4z"/>
	<path fill="#FFFFFF" d="M737.4,653.4c0-5.9,4-10.5,10-10.5c5.9,0,10,4.5,10,10.5c0,5.9-4.1,10.5-10,10.5
		C741.4,663.9,737.4,659.3,737.4,653.4z M754.9,653.4c0-4.8-2.9-8.2-7.4-8.2s-7.4,3.5-7.4,8.2c0,4.7,2.9,8.2,7.4,8.2
		S754.9,658.1,754.9,653.4z"/>
	<path fill="#FFFFFF" d="M769.8,663.5v-20.2h8.1c4.1,0,6.3,2.8,6.3,6.1c0,3.3-2.3,6.1-6.3,6.1h-5.6v8H769.8z M781.7,649.4
		c0-2.3-1.6-3.9-4-3.9h-5.3v7.7h5.3C780,653.2,781.7,651.6,781.7,649.4z"/>
	<path fill="#FFFFFF" d="M813.2,663.5v-16.7l-6.9,16.6h-1l-6.8-16.6v16.6H796v-20.2h3.6l6.3,15.2l6.3-15.2h3.6v20.2L813.2,663.5
		L813.2,663.5z"/>
	<path fill="#FFFFFF" d="M828.9,663.5v-20.2h13.2v2.2h-10.8v6.5h10.5v2.2h-10.5v7h10.8v2.2L828.9,663.5L828.9,663.5z"/>
	<path fill="#FFFFFF" d="M868.8,663.5L857,647.4v16.1h-2.5v-20.2h2.6l11.7,15.8v-15.8h2.5v20.2H868.8z"/>
	<path fill="#FFFFFF" d="M889.4,663.5v-18H883v-2.2h15.4v2.2h-6.5v18H889.4z"/>
</g>
<g>
	<g enable-background="new    ">
		<path d="M453.6,185.8V72.3h12.6v102.9h20.1v10.5L453.6,185.8L453.6,185.8z"/>
		<path d="M507.5,186.9c-6.7,0-12.3-5.5-12.3-12.3v-91c0-6.7,5.5-12.3,12.3-12.3h18.6c6.7,0,12.3,5.5,12.3,12.3v91.1
			c0,6.7-5.5,12.3-12.3,12.3h-18.6V186.9z M525.8,81.8H508v94.5h17.8V81.8z"/>
		<path d="M563.5,185.8L547.2,72.4h12.6l11.7,95.4L583,72.4h12.7l-16,113.4H563.5z"/>
		<path d="M605.7,185.8V72.3h35.6v10.5h-23.1v40.8h19.3v10.7h-19.3v41h23.1v10.5H605.7L605.7,185.8z"/>
		<path d="M663.5,186.9c-6.7,0-12.3-5.5-12.3-12.3v-91c0-6.7,5.5-12.3,12.3-12.3h18.6c6.7,0,12,5.5,12,12.3v17.9h-12.6V81.8h-17.8
			v94.5H683v-36.5h-8.8v-10.7h20.5v45.5c0,6.7-5.3,12.3-12,12.3L663.5,186.9L663.5,186.9z"/>
		<path d="M739,185.8l-8.5-45.6h-10v45.6H708V72.3h29.3c6.7,0,12.3,5.5,12.3,12.3v43.2c0,4.8-2.7,9-6.7,11l9.3,47H739L739,185.8z
			 M736.9,83h-16.3v47.2h16.3V83z"/>
		<path d="M774.3,186.9c-6.7,0-12.3-5.5-12.3-12.3v-91c0-6.7,5.5-12.3,12.3-12.3h18.6c6.7,0,12.3,5.5,12.3,12.3v91.1
			c0,6.7-5.5,12.3-12.3,12.3h-18.6V186.9z M792.5,81.8h-17.8v94.5h17.8V81.8z"/>
		<path d="M830.2,185.8L813.8,72.4h12.6l11.7,95.4l11.5-95.4h12.7l-16,113.4H830.2z"/>
		<path d="M872.4,185.8V72.3H908v10.5h-23.1v40.8h19.3v10.7h-19.3v41H908v10.5H872.4L872.4,185.8z"/>
	</g>
	<g enable-background="new    ">
		<path d="M454.4,385.7V203.4H502c10.8,0,19.7,8.8,19.7,19.7v143c0,10.8-8.8,19.7-19.7,19.7L454.4,385.7L454.4,385.7z M501.5,220.2
			h-26.8v148.6h26.8V220.2z"/>
		<path d="M543.8,385.7V203.4h57.3v16.9H564v65.6h31v17.2h-31V369h37.1v16.9h-57.3V385.7z"/>
		<path d="M635.1,387.3c-10.8,0-19.7-8.8-19.7-19.7v-25.7h20.2v28.5h23.8V333l-40.1-69.7c-3.9-6.4-3.9-13-3.9-13v-29
			c0-10.8,8.8-19.7,19.7-19.7H660c11.1,0,19.7,8.8,19.7,19.7V247h-20.2v-28.5h-23.8v33.8l40.4,69.7c3.9,6.6,3.6,12.7,3.6,12.7v32.9
			c0,10.8-8.6,19.7-19.7,19.7L635.1,387.3L635.1,387.3z"/>
		<path d="M699.6,385.7V203.4h20.2v182.3H699.6z"/>
		<path d="M761.6,387.3c-10.8,0-19.7-8.8-19.7-19.7V221.3c0-10.8,8.8-19.7,19.7-19.7h29.9c10.8,0,19.4,8.8,19.4,19.7V250h-20.2
			v-31.6h-28.5v151.9h31v-58.7H779v-17.2h32.9v73.1c0,10.8-8.5,19.7-19.4,19.7h-30.9V387.3z"/>
		<path d="M883.1,385.7V220.5h-29.9v165.2H833V203.4h20.2v10.2c2.7-6.9,7.2-10.2,16-10.2h14.9c10.8,0,19.7,8.8,19.7,19.7v162.7
			L883.1,385.7L883.1,385.7z"/>
	</g>
</g>
<polygon fill="#E0A300" points="604.5,541.1 598.6,545.4 600.9,538.5 595,534.2 602.2,534.3 604.5,527.3 606.7,534.3 614,534.2 
	608,538.5 610.3,545.4 "/>
<polygon fill="#E0A300" points="640.1,541.1 634.2,545.4 636.5,538.5 630.6,534.2 637.8,534.3 640.1,527.3 642.4,534.3 649.6,534.2 
	643.7,538.5 645.9,545.4 "/>
<polygon fill="#E0A300" points="675.7,541.1 669.8,545.4 672.1,538.5 666.2,534.2 673.4,534.3 675.7,527.3 677.9,534.3 685.1,534.2 
	679.3,538.5 681.6,545.4 "/>
<polygon fill="#E0A300" points="711.3,541.1 705.4,545.4 707.7,538.5 701.8,534.2 709,534.3 711.3,527.3 713.5,534.3 720.8,534.2 
	714.8,538.5 717.1,545.4 "/>
<polygon fill="#E0A300" points="746.9,541.1 741,545.4 743.3,538.5 737.3,534.2 744.6,534.3 746.9,527.3 749.1,534.3 756.4,534.2 
	750.4,538.5 752.7,545.4 "/>
<g>
	<g>
		<g>
			
				<line fill="none" stroke="#EDEDD6" stroke-width="3" stroke-miterlimit="10" stroke-dasharray="1.0568" x1="451.2" y1="422.5" x2="451.9" y2="422.5"/>
		</g>
		<g>
			<g>
				<line fill="none" stroke="#EDEDD6" stroke-width="3" stroke-miterlimit="10" x1="453.5" y1="422.5" x2="454.6" y2="422.5"/>
				
					<line fill="none" stroke="#EDEDD6" stroke-width="3" stroke-miterlimit="10" stroke-dasharray="2.9979,2.9979" x1="456.8" y1="422.5" x2="901" y2="422.5"/>
				<line fill="none" stroke="#EDEDD6" stroke-width="3" stroke-miterlimit="10" x1="902.1" y1="422.5" x2="903.3" y2="422.5"/>
			</g>
		</g>
		<g>
			
				<line fill="none" stroke="#EDEDD6" stroke-width="3" stroke-miterlimit="10" stroke-dasharray="1.0568" x1="904.1" y1="422.5" x2="904.8" y2="422.5"/>
		</g>
	</g>
</g>
<text transform="matrix(1 0 0 1 484.5166 1104.832)" fill="#E0A300" font-family="'Fairview-Regular'" font-size="48.3285" letter-spacing="12">CREATIVE DESIGN </text>
<text transform="matrix(1 0 0 1 454.9571 1141.2246)" fill="#E0A300" font-family="'Fairview-Regular'" font-size="48.3285" letter-spacing="12">&amp; WEB DEVELOPMENT</text>
<g enable-background="new    ">
	<path fill="#FFFFFF" d="M489.8,472.1c-1.9,0-3.4-1.5-3.4-3.4v-25.6c0-1.9,1.5-3.4,3.4-3.4h5.2c1.9,0,3.4,1.5,3.4,3.4v5h-3.5v-5.5
		h-5v26.5h5V463h3.5v5.7c0,1.9-1.5,3.4-3.4,3.4H489.8z"/>
	<path fill="#FFFFFF" d="M523.2,471.8l-2.4-12.8H518v12.8h-3.5V440h8.2c1.9,0,3.4,1.5,3.4,3.4v12.1c0,1.4-0.8,2.5-1.9,3.1l2.6,13.2
		H523.2z M522.6,443H518v13.2h4.6V443z"/>
	<path fill="#FFFFFF" d="M542.6,471.8V440h10v2.9h-6.5v11.5h5.4v3h-5.4v11.5h6.5v2.9H542.6z"/>
	<path fill="#FFFFFF" d="M576.5,471.8V459h-4.8v12.8h-3.5v-28.4c0-1.9,1.5-3.4,3.4-3.4h5.1c1.9,0,3.4,1.5,3.4,3.4v28.4H576.5z
		 M576.5,442.9h-4.8v13.1h4.8V442.9z"/>
	<path fill="#FFFFFF" d="M598.7,471.8V443h-3.8v-3h11.2v3h-3.8v28.8H598.7z"/>
	<path fill="#FFFFFF" d="M621.6,471.8V440h3.5v31.8H621.6z"/>
	<path fill="#FFFFFF" d="M645.2,471.8l-4.6-31.8h3.5l3.3,26.8l3.2-26.8h3.6l-4.5,31.8H645.2z"/>
	<path fill="#FFFFFF" d="M669.8,471.8V440h10v2.9h-6.5v11.5h5.4v3h-5.4v11.5h6.5v2.9H669.8z"/>
	<path fill="#FFFFFF" d="M716.2,471.8V440h8.3c1.9,0,3.4,1.5,3.4,3.4v25c0,1.9-1.5,3.4-3.4,3.4H716.2z M724.4,442.9h-4.7v26h4.7
		V442.9z"/>
	<path fill="#FFFFFF" d="M744.5,471.8V440h10v2.9H748v11.5h5.4v3H748v11.5h6.5v2.9H744.5z"/>
	<path fill="#FFFFFF" d="M773.1,472.1c-1.9,0-3.4-1.5-3.4-3.4v-4.5h3.5v5h4.2v-6.5l-7-12.2c-0.7-1.1-0.7-2.3-0.7-2.3v-5.1
		c0-1.9,1.5-3.4,3.4-3.4h4.3c1.9,0,3.4,1.5,3.4,3.4v4.5h-3.5v-5h-4.2v5.9l7.1,12.2c0.7,1.2,0.6,2.2,0.6,2.2v5.8
		c0,1.9-1.5,3.4-3.4,3.4H773.1z"/>
	<path fill="#FFFFFF" d="M797.1,471.8V440h3.5v31.8H797.1z"/>
	<path fill="#FFFFFF" d="M820.6,472.1c-1.9,0-3.4-1.5-3.4-3.4v-25.6c0-1.9,1.5-3.4,3.4-3.4h5.2c1.9,0,3.4,1.5,3.4,3.4v5h-3.5v-5.5
		h-5v26.5h5.4v-10.2h-2.5v-3h5.8v12.8c0,1.9-1.5,3.4-3.4,3.4H820.6z"/>
	<path fill="#FFFFFF" d="M854.6,471.8V443h-5.2v28.8h-3.5V440h3.5v1.8c0.5-1.2,1.3-1.8,2.8-1.8h2.6c1.9,0,3.4,1.5,3.4,3.4v28.4
		H854.6z"/>
</g>
<g enable-background="new    ">
	<path fill="#FFFFFF" d="M468.1,515.2l-1.5-2.9l-0.1,0.4c-0.7,1.8-1.8,2.9-3.7,2.9H460c-1.8,0-3.4-1.5-3.4-3.4v-8.8
		c0-0.9,0.2-1.5,0.7-2.3l2.1-3.7l-1.1-2.4c-0.3-0.8-0.7-1.4-0.7-2.3v-6.2c0-1.9,1.5-3.4,3.4-3.4h4.2c1.9,0,3.4,1.5,3.4,3.4v5.3h-3.2
		V486H461v7.3l5.4,11.6l1.7-4.1h2.8l-2.9,7.6l3.1,6.8H468.1z M464.8,508.9l-3.9-8.3l-1.1,2v10h3.4L464.8,508.9z"/>
	<path fill="#FFFFFF" d="M518.8,515.2c-1.4,0-2.2-1.5-2.4-2.3c-0.2,0.8-1,2.3-2.5,2.3h-3.5c-1.9,0-3.4-1.5-3.4-3.4v-28.4h3.6v28.8
		h4.1v-28.8h3.5v28.8h4.1v-28.8h3.6v28.4c0,1.9-1.5,3.4-3.4,3.4H518.8z"/>
	<path fill="#FFFFFF" d="M542.6,515.2v-31.8h10v2.9h-6.5v11.5h5.4v3h-5.4v11.5h6.5v2.9H542.6z"/>
	<path fill="#FFFFFF" d="M568.3,515.2v-31.8h8.2c1.9,0,3.4,1.5,3.4,3.4v9.4c0,1.6-1.5,2.3-1.9,2.4c0.4,0.1,2.2,0.8,2.2,2.4v10.8
		c0,1.9-1.5,3.4-3.4,3.4H568.3z M576.4,486.3h-4.6v10.8h4.6V486.3z M576.7,500.1h-4.9v12.2h4.9V500.1z"/>
	<path fill="#FFFFFF" d="M617.4,515.2v-31.8h8.3c1.9,0,3.4,1.5,3.4,3.4v25c0,1.9-1.5,3.4-3.4,3.4H617.4z M625.7,486.3H621v26h4.7
		V486.3z"/>
	<path fill="#FFFFFF" d="M645.8,515.2v-31.8h10v2.9h-6.5v11.5h5.4v3h-5.4v11.5h6.5v2.9H645.8z"/>
	<path fill="#FFFFFF" d="M674.8,515.2l-4.6-31.8h3.5l3.3,26.8l3.2-26.8h3.6l-4.5,31.8H674.8z"/>
	<path fill="#FFFFFF" d="M699.4,515.2v-31.8h10v2.9h-6.5v11.5h5.4v3h-5.4v11.5h6.5v2.9H699.4z"/>
	<path fill="#FFFFFF" d="M725.1,515.2v-31.8h3.5v28.9h5.7v2.9H725.1z"/>
	<path fill="#FFFFFF" d="M752.9,515.5c-1.9,0-3.4-1.5-3.4-3.4v-25.6c0-1.9,1.5-3.4,3.4-3.4h5.2c1.9,0,3.4,1.5,3.4,3.4v25.6
		c0,1.9-1.5,3.4-3.4,3.4H752.9z M758.1,486h-5v26.5h5V486z"/>
	<path fill="#FFFFFF" d="M778.2,515.2v-31.8h8c1.9,0,3.4,1.5,3.4,3.4v14.8c0,1.9-1.5,3.4-3.4,3.4h-4.4v10.1H778.2z M786.1,486.4
		h-4.3V502h4.3V486.4z"/>
	<path fill="#FFFFFF" d="M823,515.2v-28.8h-5v28.8h-3.5v-28.8h-5v28.8H806v-31.8h3.5v1.8c0.4-1.3,1.6-1.8,3.3-1.8h1.1
		c1.7,0,2.6,0.9,3,1.8c0.5-1.3,1.4-1.8,3-1.8h3.1c1.9,0,3.4,1.5,3.4,3.4v28.4H823z"/>
	<path fill="#FFFFFF" d="M843.2,515.2v-31.8h10v2.9h-6.5v11.5h5.4v3h-5.4v11.5h6.5v2.9H843.2z"/>
	<path fill="#FFFFFF" d="M877.7,515.2v-28.8h-5.2v28.8h-3.5v-31.8h3.5v1.8c0.5-1.2,1.3-1.8,2.8-1.8h2.6c1.9,0,3.4,1.5,3.4,3.4v28.4
		H877.7z"/>
	<path fill="#FFFFFF" d="M900.5,515.2v-28.8h-3.8v-3h11.2v3h-3.8v28.8H900.5z"/>
</g>
<text transform="matrix(1 0 0 1 444.0362 844.5811)" fill="#EDEDD6" font-family="'Fairview-Regular'" font-size="172.1438">LOVEGROVE</text>
<text transform="matrix(1 0 0 1 440.922 1044.458)" fill="#EDEDD6" font-family="'Fairview-Regular'" font-size="276.716">DESIGN</text>
<polygon fill="#E0A300" points="604.5,1171.6 598.6,1175.9 600.9,1169 595,1164.7 602.2,1164.8 604.5,1157.9 606.7,1164.8 
	614,1164.7 608,1169 610.3,1175.9 "/>
<polygon fill="#E0A300" points="640.1,1171.6 634.2,1175.9 636.5,1169 630.6,1164.7 637.8,1164.8 640.1,1157.9 642.4,1164.8 
	649.6,1164.7 643.7,1169 645.9,1175.9 "/>
<polygon fill="#E0A300" points="675.7,1171.6 669.8,1175.9 672.1,1169 666.2,1164.7 673.4,1164.8 675.7,1157.9 677.9,1164.8 
	685.1,1164.7 679.3,1169 681.6,1175.9 "/>
<polygon fill="#E0A300" points="711.3,1171.6 705.4,1175.9 707.7,1169 701.8,1164.7 709,1164.8 711.3,1157.9 713.5,1164.8 
	720.8,1164.7 714.8,1169 717.1,1175.9 "/>
<polygon fill="#E0A300" points="746.9,1171.6 741,1175.9 743.3,1169 737.3,1164.7 744.6,1164.8 746.9,1157.9 749.1,1164.8 
	756.4,1164.7 750.4,1169 752.7,1175.9 "/>
<g>
	<g>
		
			<line fill="none" stroke="#EDEDD6" stroke-width="1.6455" stroke-miterlimit="10" x1="451.2" y1="1066.4" x2="451.9" y2="1066.4"/>
		
			<line fill="none" stroke="#EDEDD6" stroke-width="1.6455" stroke-miterlimit="10" stroke-dasharray="2.2929,2.2929" x1="453.5" y1="1066.4" x2="903.3" y2="1066.4"/>
		
			<line fill="none" stroke="#EDEDD6" stroke-width="1.6455" stroke-miterlimit="10" x1="904.1" y1="1066.4" x2="904.8" y2="1066.4"/>
	</g>
</g>
<g>
	<g enable-background="new    ">
		<path fill="#EDEDD6" d="M452.1,184.3V70.9h12.6v102.9h20.1v10.5H452.1L452.1,184.3z"/>
		<path fill="#EDEDD6" d="M506.1,185.4c-6.7,0-12.3-5.5-12.3-12.3v-91c0-6.7,5.5-12.3,12.3-12.3h18.6c6.7,0,12.3,5.5,12.3,12.3v91.1
			c0,6.7-5.5,12.3-12.3,12.3h-18.6V185.4z M524.3,80.4h-17.8v94.5h17.8V80.4z"/>
		<path fill="#EDEDD6" d="M562.1,184.3L545.7,70.9h12.6l11.7,95.4l11.5-95.4h12.7l-16,113.4H562.1z"/>
		<path fill="#EDEDD6" d="M604.2,184.3V70.9h35.6v10.5h-23.1v40.8H636v10.7h-19.3v41h23.1v10.5L604.2,184.3L604.2,184.3z"/>
		<path fill="#EDEDD6" d="M662,185.4c-6.7,0-12.3-5.5-12.3-12.3v-91c0-6.7,5.5-12.3,12.3-12.3h18.6c6.7,0,12,5.5,12,12.3V100H680
			V80.4h-17.8v94.5h19.3v-36.5h-8.8v-10.7h20.5v45.5c0,6.7-5.3,12.3-12,12.3L662,185.4L662,185.4z"/>
		<path fill="#EDEDD6" d="M737.4,184.3l-8.5-45.6h-10v45.6h-12.6V70.9h29.3c6.7,0,12.3,5.5,12.3,12.3v43.2c0,4.8-2.7,9-6.7,11
			l9.3,47L737.4,184.3L737.4,184.3z M735.4,81.5h-16.3v47.2h16.3V81.5z"/>
		<path fill="#EDEDD6" d="M772.8,185.4c-6.7,0-12.3-5.5-12.3-12.3v-91c0-6.7,5.5-12.3,12.3-12.3h18.6c6.7,0,12.3,5.5,12.3,12.3v91.1
			c0,6.7-5.5,12.3-12.3,12.3h-18.6V185.4z M791,80.4h-17.8v94.5H791V80.4z"/>
		<path fill="#EDEDD6" d="M828.7,184.3L812.4,70.9H825l11.7,95.4l11.5-95.4h12.7l-16,113.4H828.7z"/>
		<path fill="#EDEDD6" d="M870.9,184.3V70.9h35.6v10.5h-23.1v40.8h19.3v10.7h-19.3v41h23.1v10.5L870.9,184.3L870.9,184.3z"/>
	</g>
	<g enable-background="new    ">
		<path fill="#EDEDD6" d="M453,384.2V201.9h47.6c10.8,0,19.7,8.8,19.7,19.7v143c0,10.8-8.8,19.7-19.7,19.7L453,384.2L453,384.2z
			 M500,218.7h-26.8v148.6H500V218.7z"/>
		<path fill="#EDEDD6" d="M542.3,384.2V201.9h57.3v16.9h-37.1v65.6h31v17.2h-31v65.9h37.1v16.9h-57.3V384.2z"/>
		<path fill="#EDEDD6" d="M633.7,385.8c-10.8,0-19.7-8.8-19.7-19.7v-25.7h20.2V369H658v-37.4l-40.1-69.7c-3.9-6.4-3.9-13-3.9-13v-29
			c0-10.8,8.8-19.7,19.7-19.7h24.9c11.1,0,19.7,8.8,19.7,19.7v25.7H658V217h-23.8v33.8l40.4,69.7c3.9,6.6,3.6,12.7,3.6,12.7v32.9
			c0,10.8-8.6,19.7-19.7,19.7L633.7,385.8L633.7,385.8z"/>
		<path fill="#EDEDD6" d="M698.1,384.2V201.9h20.2v182.3H698.1z"/>
		<path fill="#EDEDD6" d="M760.1,385.8c-10.8,0-19.7-8.8-19.7-19.7V219.8c0-10.8,8.8-19.7,19.7-19.7H790c10.8,0,19.4,8.8,19.4,19.7
			v28.7h-20.2V217h-28.5v151.9h31v-58.7h-14.1V293h32.9v73.1c0,10.8-8.5,19.7-19.4,19.7H760.1z"/>
		<path fill="#EDEDD6" d="M881.6,384.2V219h-29.9v165.2h-20.2V201.9h20.2v10.2c2.7-6.9,7.2-10.2,16-10.2h14.9
			c10.8,0,19.7,8.8,19.7,19.7v162.7L881.6,384.2L881.6,384.2z"/>
	</g>
</g>
</svg>
