<?xml version="1.0" encoding="utf-8"?>
<!-- Generator: Adobe Illustrator 17.1.0, SVG Export Plug-In . SVG Version: 6.00 Build 0)  -->
<!DOCTYPE svg PUBLIC "-//W3C//DTD SVG 1.1//EN" "http://www.w3.org/Graphics/SVG/1.1/DTD/svg11.dtd">
<svg version="1.1" id="Layer_1" xmlns="http://www.w3.org/2000/svg" xmlns:xlink="http://www.w3.org/1999/xlink" x="0px" y="0px"
	 viewBox="0 307 960 253" enable-background="new 0 307 960 253" xml:space="preserve">
<g id="Layer_2" display="none">
	<rect x="352.9" y="431.3" display="inline" width="254" height="91.3"/>
</g>
<g>
	<g>
		<line fill="none" stroke="#EDEDD6" stroke-miterlimit="10" x1="95.2" y1="555.7" x2="96.6" y2="555.7"/>
		<line fill="none" stroke="#EDEDD6" stroke-miterlimit="10" stroke-dasharray="2,2" x1="99.2" y1="555.7" x2="857.3" y2="555.7"/>
		<line fill="none" stroke="#EDEDD6" stroke-miterlimit="10" x1="858.6" y1="555.7" x2="860" y2="555.7"/>
	</g>
</g>
<text transform="matrix(1 0 0 1 78.2031 782.0618)" fill="#E0A300" font-family="'ProximaNova-Regular'" font-size="28.6959" letter-spacing="6">CREATIVE DESIGN &amp; WEB DEVELOPMENT</text>
<text transform="matrix(1 0 0 1 37.4365 737.3625)" fill="#EDEDD6" font-family="'Cubano-Regular'" font-size="104.9892">Lovegrove DESIGN</text>
<polygon fill="#E0A300" points="51.5,777.8 43.4,783.7 46.4,774.2 38.4,768.3 48.4,768.4 51.5,758.7 54.5,768.4 64.6,768.3 
	56.5,774.2 59.5,783.7 "/>
<polygon fill="#E0A300" points="920.8,777.8 912.6,783.7 915.8,774.2 907.6,768.3 917.7,768.4 920.8,758.7 923.9,768.4 933.9,768.3 
	925.7,774.2 928.9,783.7 "/>
<g enable-background="new    ">
	<path fill="#E0A300" d="M141.3,543c-1.6,0-2.8-1.3-2.8-2.8v-21.1c0-1.6,1.3-2.8,2.8-2.8h4.3c1.6,0,2.8,1.3,2.8,2.8v4.1h-2.9v-4.5
		h-4.1v21.9h4.1v-5.1h2.9v4.7c0,1.6-1.2,2.8-2.8,2.8H141.3z"/>
	<path fill="#E0A300" d="M168.1,542.8l-2-10.6h-2.3v10.6h-2.9v-26.3h6.8c1.6,0,2.8,1.3,2.8,2.8v10c0,1.1-0.6,2.1-1.6,2.6l2.2,10.9
		H168.1z M167.6,519h-3.8v10.9h3.8V519z"/>
	<path fill="#E0A300" d="M183.2,542.8v-26.3h8.3v2.4h-5.3v9.5h4.5v2.5h-4.5v9.5h5.3v2.4H183.2z"/>
	<path fill="#E0A300" d="M210.5,542.8v-10.6h-4v10.6h-2.9v-23.5c0-1.6,1.3-2.8,2.8-2.8h4.2c1.6,0,2.8,1.3,2.8,2.8v23.5H210.5z
		 M210.5,518.9h-4v10.8h4V518.9z"/>
	<path fill="#E0A300" d="M228,542.8V519h-3.2v-2.5h9.3v2.5H231v23.8H228z"/>
	<path fill="#E0A300" d="M246.1,542.8v-26.3h2.9v26.3H246.1z"/>
	<path fill="#E0A300" d="M264.8,542.8l-3.8-26.3h2.9l2.7,22.1l2.7-22.1h3l-3.7,26.3H264.8z"/>
	<path fill="#E0A300" d="M284.2,542.8v-26.3h8.3v2.4h-5.3v9.5h4.5v2.5h-4.5v9.5h5.3v2.4H284.2z"/>
	<path fill="#E0A300" d="M320.9,542.8v-26.3h6.9c1.6,0,2.8,1.3,2.8,2.8v20.6c0,1.6-1.3,2.8-2.8,2.8H320.9z M327.7,518.9h-3.9v21.4
		h3.9V518.9z"/>
	<path fill="#E0A300" d="M343.5,542.8v-26.3h8.3v2.4h-5.3v9.5h4.5v2.5h-4.5v9.5h5.3v2.4H343.5z"/>
	<path fill="#E0A300" d="M366.4,543c-1.6,0-2.8-1.3-2.8-2.8v-3.7h2.9v4.1h3.4v-5.4l-5.8-10.1c-0.6-0.9-0.6-1.9-0.6-1.9v-4.2
		c0-1.6,1.3-2.8,2.8-2.8h3.6c1.6,0,2.8,1.3,2.8,2.8v3.7h-2.9v-4.1h-3.4v4.9l5.8,10.1c0.6,1,0.5,1.8,0.5,1.8v4.7
		c0,1.6-1.2,2.8-2.8,2.8H366.4z"/>
	<path fill="#E0A300" d="M385.3,542.8v-26.3h2.9v26.3H385.3z"/>
	<path fill="#E0A300" d="M404,543c-1.6,0-2.8-1.3-2.8-2.8v-21.1c0-1.6,1.3-2.8,2.8-2.8h4.3c1.6,0,2.8,1.3,2.8,2.8v4.1h-2.9v-4.5H404
		v21.9h4.5v-8.5h-2v-2.5h4.7v10.5c0,1.6-1.2,2.8-2.8,2.8H404z"/>
	<path fill="#E0A300" d="M431.2,542.8V519h-4.3v23.8h-2.9v-26.3h2.9v1.5c0.4-1,1-1.5,2.3-1.5h2.2c1.6,0,2.8,1.3,2.8,2.8v23.5H431.2z
		"/>
	<path fill="#E0A300" d="M472.6,542.8l-1.2-2.4l-0.1,0.3c-0.6,1.5-1.5,2.4-3,2.4h-2.3c-1.5,0-2.8-1.2-2.8-2.8V533
		c0-0.7,0.2-1.2,0.6-1.9l1.8-3.1l-0.9-2c-0.3-0.7-0.6-1.2-0.6-1.9V519c0-1.6,1.3-2.8,2.8-2.8h3.4c1.6,0,2.8,1.2,2.8,2.8v4.3h-2.7
		v-4.7h-3.5v6l4.4,9.6l1.4-3.4h2.3l-2.4,6.3l2.6,5.6H472.6z M469.9,537.6l-3.2-6.8l-0.9,1.6v8.2h2.8L469.9,537.6z"/>
	<path fill="#E0A300" d="M512.8,542.8c-1.2,0-1.8-1.2-2-1.9c-0.2,0.7-0.8,1.9-2.1,1.9h-2.9c-1.6,0-2.8-1.3-2.8-2.8v-23.5h3v23.8h3.4
		v-23.8h2.9v23.8h3.4v-23.8h3v23.5c0,1.6-1.2,2.8-2.8,2.8H512.8z"/>
	<path fill="#E0A300" d="M531.6,542.8v-26.3h8.3v2.4h-5.3v9.5h4.5v2.5h-4.5v9.5h5.3v2.4H531.6z"/>
	<path fill="#E0A300" d="M552,542.8v-26.3h6.8c1.6,0,2.8,1.3,2.8,2.8v7.8c0,1.3-1.2,1.9-1.6,2c0.4,0.1,1.8,0.6,1.8,2v8.9
		c0,1.6-1.3,2.8-2.8,2.8H552z M558.8,518.9H555v8.9h3.8V518.9z M559,530.2h-4v10.1h4V530.2z"/>
	<path fill="#E0A300" d="M591,542.8v-26.3h6.9c1.6,0,2.8,1.3,2.8,2.8v20.6c0,1.6-1.3,2.8-2.8,2.8H591z M597.8,518.9h-3.9v21.4h3.9
		V518.9z"/>
	<path fill="#E0A300" d="M613.6,542.8v-26.3h8.3v2.4h-5.3v9.5h4.5v2.5h-4.5v9.5h5.3v2.4H613.6z"/>
	<path fill="#E0A300" d="M636.8,542.8l-3.8-26.3h2.9l2.7,22.1l2.7-22.1h3l-3.7,26.3H636.8z"/>
	<path fill="#E0A300" d="M656.2,542.8v-26.3h8.3v2.4h-5.3v9.5h4.5v2.5h-4.5v9.5h5.3v2.4H656.2z"/>
	<path fill="#E0A300" d="M676.6,542.8v-26.3h2.9v23.9h4.7v2.4H676.6z"/>
	<path fill="#E0A300" d="M698.9,543c-1.6,0-2.8-1.3-2.8-2.8v-21.1c0-1.6,1.3-2.8,2.8-2.8h4.3c1.6,0,2.8,1.3,2.8,2.8v21.1
		c0,1.6-1.3,2.8-2.8,2.8H698.9z M703.1,518.7H699v21.9h4.1V518.7z"/>
	<path fill="#E0A300" d="M718.9,542.8v-26.3h6.6c1.6,0,2.8,1.3,2.8,2.8v12.2c0,1.6-1.3,2.8-2.8,2.8h-3.7v8.4H718.9z M725.4,519h-3.6
		v12.9h3.6V519z"/>
	<path fill="#E0A300" d="M755.1,542.8V519H751v23.8h-2.9V519H744v23.8h-2.9v-26.3h2.9v1.5c0.4-1,1.3-1.5,2.7-1.5h0.9
		c1.4,0,2.2,0.7,2.5,1.5c0.4-1,1.1-1.5,2.5-1.5h2.6c1.6,0,2.8,1.3,2.8,2.8v23.5H755.1z"/>
	<path fill="#E0A300" d="M771,542.8v-26.3h8.3v2.4h-5.3v9.5h4.5v2.5h-4.5v9.5h5.3v2.4H771z"/>
	<path fill="#E0A300" d="M798.6,542.8V519h-4.3v23.8h-2.9v-26.3h2.9v1.5c0.4-1,1-1.5,2.3-1.5h2.2c1.6,0,2.8,1.3,2.8,2.8v23.5H798.6z
		"/>
	<path fill="#E0A300" d="M816.6,542.8V519h-3.2v-2.5h9.3v2.5h-3.2v23.8H816.6z"/>
</g>
<text transform="matrix(1 0 0 1 187.3354 204.0643)" fill="#E0A300" font-family="'Fairview-Regular'" font-size="34.6959" letter-spacing="8">CREATIVE DESIGN &amp; WEB DEVELOPMENT</text>
<polygon fill="#E0A300" points="108.4,534.8 100.3,540.7 103.3,531.2 95.3,525.3 105.3,525.4 108.4,515.7 111.4,525.4 121.5,525.3 
	113.4,531.2 116.4,540.7 "/>
<polygon fill="#E0A300" points="848.7,534.8 840.5,540.7 843.7,531.2 835.5,525.3 845.6,525.4 848.7,515.7 851.8,525.4 861.8,525.3 
	853.6,531.2 856.8,540.7 "/>
<g>
	<g>
		<path fill="#EDEDD6" d="M58.7,498.4V375.9h13.6v111.3h21.8v11.4H58.7V498.4z"/>
		<path fill="#EDEDD6" d="M117.2,499.6c-7.3,0-13.2-6-13.2-13.2V388c0-7.3,6-13.2,13.2-13.2h20.1c7.3,0,13.2,6,13.2,13.2v98.4
			c0,7.3-6,13.2-13.2,13.2H117.2z M136.9,386.1h-19.2v102.1h19.2V386.1z"/>
		<path fill="#EDEDD6" d="M177.7,498.4L160,375.8h13.6l12.7,103.1l12.4-103.1h13.8l-17.3,122.6H177.7z"/>
		<path fill="#EDEDD6" d="M223.3,498.4V375.9h38.5v11.4h-24.9v44.1h20.9v11.5h-20.9v44.3h24.9v11.4h-38.5V498.4z"/>
		<path fill="#EDEDD6" d="M285.8,499.6c-7.3,0-13.2-6-13.2-13.2V388c0-7.3,6-13.2,13.2-13.2h20.1c7.3,0,13,6,13,13.2v19.3h-13.6
			v-21.2h-19.1v102.1h20.9v-39.4h-9.5v-11.5h22.1v49.1c0,7.3-5.8,13.2-13,13.2H285.8z"/>
		<path fill="#EDEDD6" d="M367.3,498.4l-9.1-49.2h-10.8v49.3h-13.5V375.9h31.6c7.3,0,13.2,6,13.2,13.2v46.7c0,5.2-3,9.7-7.3,11.9
			l10.1,50.8L367.3,498.4L367.3,498.4L367.3,498.4z M365.1,387.4h-17.7v50.9h17.7V387.4z"/>
		<path fill="#EDEDD6" d="M405.5,499.6c-7.3,0-13.2-6-13.2-13.2V388c0-7.3,6-13.2,13.2-13.2h20.1c7.3,0,13.2,6,13.2,13.2v98.4
			c0,7.3-6,13.2-13.2,13.2H405.5z M425.2,386.1H406v102.1h19.2V386.1z"/>
		<path fill="#EDEDD6" d="M466,498.4l-17.7-122.6h13.6l12.7,103.1L487,375.8h13.8l-17.3,122.6H466z"/>
		<path fill="#EDEDD6" d="M511.5,498.4V375.9H550v11.4h-24.9v44.1H546v11.5h-20.9v44.3H550v11.4h-38.5V498.4z"/>
	</g>
	<g>
		<path fill="#EDEDD6" d="M598.1,498.4V375.9h32c7.3,0,13.2,6,13.2,13.2v96.2c0,7.3-6,13.2-13.2,13.2h-32V498.4z M629.8,387.2h-18.1
			v99.9h18L629.8,387.2L629.8,387.2L629.8,387.2z"/>
		<path fill="#EDEDD6" d="M658.2,498.4V375.9h38.5v11.4h-24.9v44.1h20.9v11.5h-20.9v44.3h24.9v11.4h-38.5V498.4z"/>
		<path fill="#EDEDD6" d="M719.6,499.6c-7.3,0-13.2-6-13.2-13.2v-17.3H720v19.2h16v-25.1l-27-46.8c-2.6-4.2-2.6-8.7-2.6-8.7V388
			c0-7.3,6-13.2,13.2-13.2h16.8c7.4,0,13.2,6,13.2,13.2v17.3H736v-19.2h-16v22.8l27.1,46.8c2.6,4.5,2.4,8.6,2.4,8.6v22.1
			c0,7.3-5.8,13.2-13.2,13.2H719.6z"/>
		<path fill="#EDEDD6" d="M763,498.4V375.9h13.6v122.6H763V498.4z"/>
		<path fill="#EDEDD6" d="M804.7,499.6c-7.3,0-13.2-6-13.2-13.2V388c0-7.3,6-13.2,13.2-13.2h20.1c7.3,0,13,6,13,13.2v19.3h-13.6
			v-21.2H805v102.1h20.9v-39.4h-9.5v-11.5h22.1v49.1c0,7.3-5.8,13.2-13,13.2H804.7z"/>
		<path fill="#EDEDD6" d="M886.3,498.4V387.3h-20.1v111.1h-13.6V375.9h13.6v6.9c1.9-4.6,4.9-6.9,10.8-6.9h10.1
			c7.3,0,13.2,6,13.2,13.2v109.4h-14V498.4z"/>
	</g>
</g>
</svg>
